# xmcd
#
# Track frame offsets: 
#        182
#        18947
#        47117
#        63612
#        94797
#        110470
#        137557
#        157405
#        181497
#        200445
#        226317
#
# Disc length: 3242 seconds
#
# Revision: 1
# Processed by: cddbd v1.5.2PL0 Copyright (c) Steve Scherf et al.
# Submitted via: ExactAudioCopyFreeDBPlugin 1.0
#
DISCID=980ca80b
DTITLE=John Primer - Poor Man Blues: Chicago Blues Session, Vol. 6
DYEAR=1991
DGENRE=Blues
TTITLE0=Add A Little Touch
TTITLE1=Smile In Your Face
TTITLE2=Poor Man Blues
TTITLE3=If I Could Hold You In My Arms
TTITLE4=Hiding Place
TTITLE5=I'm A Blues Man
TTITLE6=My Eyes Keep Me in Trouble
TTITLE7=My Baby Don't Love Me
TTITLE8=Try My Lovin'
TTITLE9=Corrine
TTITLE10=Forgive Not Forget
EXTD=YEAR: 1991
EXTT0=
EXTT1=
EXTT2=
EXTT3=
EXTT4=
EXTT5=
EXTT6=
EXTT7=
EXTT8=
EXTT9=
EXTT10=
PLAYORDER=
